<svg class="ldi-oqvyi4" width="100%" height="100%" xmlns="http://www.w3.org/2000/svg" xmlns:xlink="http://www.w3.org/1999/xlink" viewBox="0 0 100 100" preserveAspectRatio="xMidYMid" style="background: none;"><!--?xml version="1.0" encoding="utf-8"?--><!--Generator: Adobe Illustrator 21.0.0, SVG Export Plug-In . SVG Version: 6.00 Build 0)--><svg version="1.1" id="Layer_1" xmlns="http://www.w3.org/2000/svg" xmlns:xlink="http://www.w3.org/1999/xlink" x="0px" y="0px" viewBox="0 0 100 100" style="transform-origin: 50px 50px 0px;" xml:space="preserve"><g style="transform-origin: 50px 50px 0px; transform: scale(0.6);"><g style="transform-origin: 50px 50px 0px;"><style type="text/css" class="ld ld-breath" style="transform-origin: 50px 50px 0px; animation-duration: 1s; animation-delay: -1s;">.st0{fill:#F4E6C8;} .st1{opacity:0.8;fill:#849B87;} .st2{fill:#D65A62;} .st3{fill:#E15C64;} .st4{fill:#F47E5F;} .st5{fill:#F7B26A;} .st6{fill:#FEE8A2;} .st7{fill:#ACBD81;} .st8{fill:#F5E169;} .st9{fill:#F0AF6B;} .st10{fill:#EA7C60;} .st11{fill:#A8B980;} .st12{fill:#829985;} .st13{fill:#798AAE;} .st14{fill:#8672A7;} .st15{fill:#CC5960;} .st16{fill:#E17A5F;} .st17{fill:#849B87;} .st18{opacity:0.8;fill:#E15C64;} .st19{opacity:0.8;fill:#F7B26A;} .st20{fill:#79A5B5;} .st21{opacity:0.8;fill:#79A5B4;} .st22{fill:#666766;}</style><g class="ld ld-breath" style="transform-origin: 50px 50px 0px; animation-duration: 1s; animation-delay: -0.958333s;"><path class="st5" d="M43.3,30.1l7.2,4.2V20.6C47.9,23.2,45.4,26.5,43.3,30.1z" fill="#1d3f72" style="fill: rgb(29, 63, 114);"></path></g><g class="ld ld-breath" style="transform-origin: 50px 50px 0px; animation-duration: 1s; animation-delay: -0.916667s;"><path class="st4" d="M50.5,7.5c-9,0-16.2,12.8-16.2,28.7h16.2V7.5z" fill="#5699d2" style="fill: rgb(86, 153, 210);"></path></g><g class="ld ld-breath" style="transform-origin: 50px 50px 0px; animation-duration: 1s; animation-delay: -0.875s;"><path class="st3" d="M29.2,13c-7.8,4.5-7.6,19.2,0.3,32.9l14.1-8.1L29.2,13z" fill="#d8ebf9" style="fill: rgb(216, 235, 249);"></path></g><g class="ld ld-breath" style="transform-origin: 50px 50px 0px; animation-duration: 1s; animation-delay: -0.833333s;"><path class="st5" d="M13.4,28.3c-4.5,7.8,3,20.5,16.7,28.4l8.1-14.1L13.4,28.3z" fill="#1d3f72" style="fill: rgb(29, 63, 114);"></path></g><g class="ld ld-breath" style="transform-origin: 50px 50px 0px; animation-duration: 1s; animation-delay: -0.791667s;"><path class="st4" d="M7.5,49.5c0,9,12.8,16.2,28.7,16.2V49.5H7.5z" fill="#5699d2" style="fill: rgb(86, 153, 210);"></path></g><g class="ld ld-breath" style="transform-origin: 50px 50px 0px; animation-duration: 1s; animation-delay: -0.75s;"><path class="st3" d="M13,70.8c4.5,7.8,19.2,7.6,32.9-0.3l-8.1-14.1L13,70.8z" fill="#d8ebf9" style="fill: rgb(216, 235, 249);"></path></g><g class="ld ld-breath" style="transform-origin: 50px 50px 0px; animation-duration: 1s; animation-delay: -0.708333s;"><path class="st5" d="M28.3,86.6c7.8,4.5,20.5-3,28.4-16.7l-14.1-8.1L28.3,86.6z" fill="#1d3f72" style="fill: rgb(29, 63, 114);"></path></g><g class="ld ld-breath" style="transform-origin: 50px 50px 0px; animation-duration: 1s; animation-delay: -0.666667s;"><path class="st4" d="M49.5,92.5c9,0,16.2-12.8,16.2-28.7H49.5V92.5z" fill="#5699d2" style="fill: rgb(86, 153, 210);"></path></g><g class="ld ld-breath" style="transform-origin: 50px 50px 0px; animation-duration: 1s; animation-delay: -0.625s;"><path class="st3" d="M70.8,87c7.8-4.5,7.6-19.2-0.3-32.9l-14.1,8.1L70.8,87z" fill="#d8ebf9" style="fill: rgb(216, 235, 249);"></path></g><g class="ld ld-breath" style="transform-origin: 50px 50px 0px; animation-duration: 1s; animation-delay: -0.583333s;"><path class="st5" d="M86.6,71.7c4.5-7.8-3-20.5-16.7-28.4l-8.1,14.1L86.6,71.7z" fill="#1d3f72" style="fill: rgb(29, 63, 114);"></path></g><g class="ld ld-breath" style="transform-origin: 50px 50px 0px; animation-duration: 1s; animation-delay: -0.541667s;"><path class="st4" d="M92.5,50.5c0-9-12.8-16.2-28.7-16.2v16.2H92.5z" fill="#5699d2" style="fill: rgb(86, 153, 210);"></path></g><g class="ld ld-breath" style="transform-origin: 50px 50px 0px; animation-duration: 1s; animation-delay: -0.5s;"><path class="st3" d="M87,29.2c-4.5-7.8-19.2-7.6-32.9,0.3l8.1,14.1L87,29.2z" fill="#d8ebf9" style="fill: rgb(216, 235, 249);"></path></g><g class="ld ld-breath" style="transform-origin: 50px 50px 0px; animation-duration: 1s; animation-delay: -0.458333s;"><path class="st5" d="M71.7,13.4c-5.7-3.3-14-0.1-21.2,7.1v13.7l6.9,4L71.7,13.4z" fill="#1d3f72" style="fill: rgb(29, 63, 114);"></path></g><g class="ld ld-breath" style="transform-origin: 50px 50px 0px; animation-duration: 1s; animation-delay: -0.416667s;"><path class="st8" d="M50,31.4c-10.3,0-18.6,8.3-18.6,18.6c0,10.3,8.3,18.6,18.6,18.6S68.6,60.3,68.6,50C68.6,39.7,60.3,31.4,50,31.4 z M50,61.5c-6.3,0-11.5-5.1-11.5-11.5c0-6.3,5.1-11.5,11.5-11.5S61.5,43.7,61.5,50C61.5,56.3,56.3,61.5,50,61.5z" fill="#71c2cc" style="fill: rgb(113, 194, 204);"></path></g><metadata xmlns:d="https://loading.io/stock/" class="ld ld-breath" style="transform-origin: 50px 50px 0px; animation-duration: 1s; animation-delay: -0.375s;">
<d:name class="ld ld-breath" style="transform-origin: 50px 50px 0px; animation-duration: 1s; animation-delay: -0.333333s;">fan</d:name>
<d:tags class="ld ld-breath" style="transform-origin: 50px 50px 0px; animation-duration: 1s; animation-delay: -0.291667s;">motor,turbine,windmill,flower,pinwheel,blossom,cosmos,fan,spinner</d:tags>
<d:license class="ld ld-breath" style="transform-origin: 50px 50px 0px; animation-duration: 1s; animation-delay: -0.25s;">cc-by</d:license>
<d:slug class="ld ld-breath" style="transform-origin: 50px 50px 0px; animation-duration: 1s; animation-delay: -0.208333s;">oqvyi4</d:slug>
</metadata></g></g><style type="text/css" class="ld ld-breath" style="transform-origin: 50px 50px 0px; animation-duration: 1s; animation-delay: -0.166667s;">path,ellipse,circle,rect,polygon,polyline,line { stroke-width: 0; }@keyframes ld-breath {
  0% {
    -webkit-transform: scale(0.86);
    transform: scale(0.86);
  }
  50% {
    -webkit-transform: scale(1.06);
    transform: scale(1.06);
  }
  100% {
    -webkit-transform: scale(0.86);
    transform: scale(0.86);
  }
}
@-webkit-keyframes ld-breath {
  0% {
    -webkit-transform: scale(0.86);
    transform: scale(0.86);
  }
  50% {
    -webkit-transform: scale(1.06);
    transform: scale(1.06);
  }
  100% {
    -webkit-transform: scale(0.86);
    transform: scale(0.86);
  }
}
.ld.ld-breath {
  -webkit-animation: ld-breath 1s infinite;
  animation: ld-breath 1s infinite;
}
</style></svg></svg>